<?xml version="1.0" encoding="UTF-8" standalone="no"?>
<!-- Generator: Adobe Illustrator 18.1.1, SVG Export Plug-In . SVG Version: 6.00 Build 0)  -->

<svg
   xmlns:dc="http://purl.org/dc/elements/1.1/"
   xmlns:cc="http://creativecommons.org/ns#"
   xmlns:rdf="http://www.w3.org/1999/02/22-rdf-syntax-ns#"
   xmlns:svg="http://www.w3.org/2000/svg"
   xmlns="http://www.w3.org/2000/svg"
   xmlns:sodipodi="http://sodipodi.sourceforge.net/DTD/sodipodi-0.dtd"
   xmlns:inkscape="http://www.inkscape.org/namespaces/inkscape"
   version="1.1"
   id="Layer_1"
   x="0px"
   y="0px"
   viewBox="0 0 39 18"
   enable-background="new 0 0 39 18"
   xml:space="preserve"
   inkscape:version="0.91 r13725"
   sodipodi:docname="checkbox.svg"><metadata
     id="metadata13"><rdf:RDF><cc:Work
         rdf:about=""><dc:format>image/svg+xml</dc:format><dc:type
           rdf:resource="http://purl.org/dc/dcmitype/StillImage" /><dc:title></dc:title></cc:Work></rdf:RDF></metadata><defs
     id="defs11" /><sodipodi:namedview
     pagecolor="#ffffff"
     bordercolor="#666666"
     borderopacity="1"
     objecttolerance="10"
     gridtolerance="10"
     guidetolerance="10"
     inkscape:pageopacity="0"
     inkscape:pageshadow="2"
     inkscape:window-width="640"
     inkscape:window-height="480"
     id="namedview9"
     showgrid="false"
     inkscape:zoom="9.7435897"
     inkscape:cx="19.5"
     inkscape:cy="9"
     inkscape:window-x="0"
     inkscape:window-y="0"
     inkscape:window-maximized="0"
     inkscape:current-layer="Layer_1" /><path
     fill="none"
     stroke="#7A7A7A"
     stroke-width="2"
     stroke-miterlimit="10"
     d="M16,16.9H2.1c-0.6,0-1-0.4-1-1V2c0-0.6,0.4-1,1-1H16  c0.6,0,1,0.4,1,1v13.9C17,16.5,16.6,16.9,16,16.9z"
     id="path3" /><path
     fill="#42A4F5"
     stroke="#42A4F5"
     stroke-width="2"
     stroke-miterlimit="10"
     d="M37.1,16.9H23.1c-0.6,0-1-0.4-1-1V2  c0-0.6,0.4-1,1-1h13.9c0.6,0,1,0.4,1,1v13.9C38.1,16.5,37.6,16.9,37.1,16.9z"
     id="path5" /><polyline
     fill="none"
     stroke="#FFFFFF"
     stroke-width="2"
     stroke-linecap="round"
     stroke-linejoin="round"
     stroke-miterlimit="10"
     points="  24.7,8.3 28.5,12.4 36.5,4.7 "
     id="polyline7" /></svg>