<?xml version="1.0" encoding="UTF-8" standalone="no"?>
<svg
   xmlns:dc="http://purl.org/dc/elements/1.1/"
   xmlns:cc="http://creativecommons.org/ns#"
   xmlns:rdf="http://www.w3.org/1999/02/22-rdf-syntax-ns#"
   xmlns:svg="http://www.w3.org/2000/svg"
   xmlns="http://www.w3.org/2000/svg"
   xmlns:sodipodi="http://sodipodi.sourceforge.net/DTD/sodipodi-0.dtd"
   xmlns:inkscape="http://www.inkscape.org/namespaces/inkscape"
   height="17.4"
   width="9.8999996"
   xml:space="preserve"
   enable-background="new -590 592 18 18"
   viewBox="-590 592 9.8999996 17.4"
   y="0px"
   x="0px"
   id="Layer_1"
   version="1.1"
   inkscape:version="0.91 r13725"
   sodipodi:docname="Deploy.svg"><sodipodi:namedview
     pagecolor="#ffffff"
     bordercolor="#666666"
     borderopacity="1"
     objecttolerance="10"
     gridtolerance="10"
     guidetolerance="10"
     inkscape:pageopacity="0"
     inkscape:pageshadow="2"
     inkscape:window-width="1920"
     inkscape:window-height="1018"
     id="namedview7"
     showgrid="false"
     inkscape:zoom="13.563219"
     inkscape:cx="36.13729"
     inkscape:cy="2.1381402"
     inkscape:window-x="-8"
     inkscape:window-y="-8"
     inkscape:window-maximized="1"
     inkscape:current-layer="Layer_1"
     fit-margin-top="0"
     fit-margin-left="0"
     fit-margin-right="0"
     fit-margin-bottom="0" /><metadata
     id="metadata11"><rdf:RDF><cc:Work
         rdf:about=""><dc:format>image/svg+xml</dc:format><dc:type
           rdf:resource="http://purl.org/dc/dcmitype/StillImage" /><dc:title></dc:title></cc:Work></rdf:RDF></metadata><defs
     id="defs9" /><path
     style="fill:none"
     id="path3"
     d="m -527.11779,600.70254 18,0 0,18 -18,0 0,-18 z"
     inkscape:connector-curvature="0" /><path
     style="fill:#959595"
     id="path5"
     d="m -584.2,607.7 c 0,0.4 0,0.8 0,1.2 0,0.3 -0.2,0.5 -0.5,0.5 0,0 -0.1,0 -0.1,0 -0.9,0 -1,0 -1,-1 0,-0.2 0,-0.5 0,-0.7 -0.9,-0.1 -1.7,-0.1 -2.4,0.4 -0.4,0.3 -0.8,0.5 -1.1,0.8 -0.4,0.2 -0.7,0.1 -0.7,-0.3 0,-1 0,-2 0,-2.9 0.1,-0.9 0.6,-1.6 1.3,-2.1 0.2,-0.1 0.3,-0.3 0.3,-0.6 0,-1.4 0,-2.7 0.2,-4.1 0.3,-2.5 1.2,-4.7 2.7,-6.6 0.3,-0.4 0.6,-0.4 0.9,0 1.4,1.8 2.2,3.8 2.6,6 0.3,1.5 0.2,3.1 0.2,4.7 0,0.3 0.1,0.4 0.3,0.6 0.9,0.6 1.4,1.4 1.4,2.4 0,0.8 0,1.7 0,2.5 0,0.6 -0.3,0.7 -0.8,0.4 -0.2,-0.1 -0.5,-0.3 -0.7,-0.5 -0.9,-0.7 -1.2,-0.8 -2.6,-0.7 z m 0.7,-9.3 c 0,-0.8 -0.7,-1.5 -1.5,-1.5 -0.8,0 -1.5,0.7 -1.5,1.5 0,0.8 0.7,1.5 1.5,1.5 0.8,0 1.5,-0.7 1.5,-1.5 z"
     inkscape:connector-curvature="0" /></svg>