<?xml version="1.0" encoding="utf-8"?>
<!-- Generator: Adobe Illustrator 18.1.1, SVG Export Plug-In . SVG Version: 6.00 Build 0)  -->
<svg version="1.1" id="Layer_1" xmlns="http://www.w3.org/2000/svg" xmlns:xlink="http://www.w3.org/1999/xlink" x="0px" y="0px"
	 viewBox="-587 589 24 24" enable-background="new -587 589 24 24" xml:space="preserve">
<path fill="none" d="M-587,589h24v24h-24V589z"/>
<path fill="#8797AE" d="M-571,600c1.7,0,3-1.3,3-3s-1.3-3-3-3s-3,1.3-3,3S-572.7,600-571,600z M-579,600c1.7,0,3-1.3,3-3s-1.3-3-3-3
	s-3,1.3-3,3S-580.7,600-579,600z M-579,602c-2.3,0-7,1.2-7,3.5v2.5h14v-2.5C-572,603.2-576.7,602-579,602z M-571,602
	c-0.3,0-0.6,0-1,0c1.2,0.8,2,2,2,3.5v2.5h6v-2.5C-564,603.2-568.7,602-571,602z"/>
</svg>
