<?xml version="1.0" encoding="UTF-8" standalone="no"?>
<svg
   xmlns:dc="http://purl.org/dc/elements/1.1/"
   xmlns:cc="http://creativecommons.org/ns#"
   xmlns:rdf="http://www.w3.org/1999/02/22-rdf-syntax-ns#"
   xmlns:svg="http://www.w3.org/2000/svg"
   xmlns="http://www.w3.org/2000/svg"
   version="1.1"
   id="svg2"
   viewBox="0 0 109.16316 87.824278"
   height="24.785963mm"
   width="30.80827mm">
  <defs
     id="defs4" />
  <metadata
     id="metadata7">
    <rdf:RDF>
      <cc:Work
         rdf:about="">
        <dc:format>image/svg+xml</dc:format>
        <dc:type
           rdf:resource="http://purl.org/dc/dcmitype/StillImage" />
        <dc:title></dc:title>
      </cc:Work>
    </rdf:RDF>
  </metadata>
  <g
     transform="translate(817.5203,-30.895074)"
     id="layer1">
    <path
       id="path3347"
       d="m -804.76234,98.786704 c -7.0978,-10.92548 -12.8386,-20.24764 -12.7571,-20.71592 0.1679,-0.96569 17.1077,-24.3514 17.6393,-24.3514 0.1898,0 2.8812,0.97052 5.9809,2.15671 4.0021,1.53153 5.476,2.57303 5.0847,3.5929 -0.3031,0.78991 -0.8297,2.54623 -1.1702,3.90293 -0.3406,1.35671 -1.1261,2.27666 -1.7458,2.04433 -4.9865,-1.86966 -5.0882,-1.81741 -10.4803,5.38802 -3.5165,4.69899 -5.0826,7.63871 -4.6584,8.74413 0.3514,0.9159 4.9742,8.30406 10.2727,16.41813 l 9.6336,14.752846 24.0529,-0.0536 24.0529,-0.0536 10.2903,-15.965136 10.2902,-15.96513 -5.2902,-7.44689 c -5.3791,-7.57195 -5.5247,-7.65321 -10.4211,-5.81719 -0.9708,0.36402 -3.3692,-4.45944 -3.3692,-6.77585 0,-0.75437 11.042,-5.28223 11.4808,-4.7078 7.7217,10.10859 17.5192,23.65526 17.5192,24.22317 0,0.42005 -5.9022,9.71834 -13.116,20.66286 l -13.116,19.899136 -28.634,-0.0341 -28.634,-0.0341 -12.9052,-19.864506 z m 31.9299,-4.26464 c -0.9564,-3.40853 -1.9639,-6.78353 -2.2388,-7.5 -1.0112,-2.63526 10.2473,-0.90954 14.2603,2.18582 1.8797,1.44991 1.7453,1.69549 -3.5462,6.47745 -3.025,2.73371 -5.7782,4.984716 -6.1182,5.002216 -0.34,0.0175 -1.4007,-2.756966 -2.3571,-6.165486 z m 19.4067,-6.37253 c -6.0709,-6.18581 -15.5922,-9.17851 -24.4314,-7.6792 -6.6095,1.12111 -7.9228,0.57253 -8.9793,-3.75095 -0.5305,-2.17077 0.2933,-3.23857 6.2553,-8.10837 6.3168,-5.1596 7.3108,-6.52592 12.4223,-17.07526 6.0617,-12.51064 10.0858,-17.86297 14.9425,-19.87471 2.9452,-1.2199 3.2991,-1.13155 5.4406,1.35804 3.4683,4.03217 3.9869,10.43097 2.0018,24.7003 -1.8328,13.17418 -1.5356,17.08301 1.9291,25.3752 1.9204,4.5961 1.6377,5.5871 -2.2339,7.83273 l -2.9446,1.70794 -4.4024,-4.48572 z m -2.6489,-23.68015 c 0.9157,-0.6875 2.3568,-3.23364 3.2026,-5.6581 1.3824,-3.96281 1.3827,-4.64466 0,-6.75 -3.4211,-5.22117 -9.1071,-1.60384 -10.1918,6.48386 -0.4406,3.28491 -0.154,4.1607 1.8125,5.5381 2.8045,1.96434 3.0474,1.98247 5.1734,0.38614 z"
       style="fill:#ffffff" />
  </g>
</svg>
